<svg id="Layer_1" data-name="Layer 1" xmlns="http://www.w3.org/2000/svg" viewBox="0 0 77 73.2"><defs><style>.cls-1{fill:#1f7f91;}.cls-2{fill:#142932;}.cls-3{fill:#142832;}</style></defs><title>ten</title><path class="cls-1" d="M0,0,11.79,46.93l13.55-.52L18.63,1.48Z"/><path class="cls-2" d="M77,6.55,20.69,1.66l6.7,44.69L77,44.57Z"/><path class="cls-1" d="M12.49,53.73a5.2,5.2,0,0,1,1.3-.16,2.36,2.36,0,0,1,1.72.56,2,2,0,0,1-.69,3.18v0a2,2,0,0,1,1.44,2.06A2.38,2.38,0,0,1,15.71,61a2.58,2.58,0,0,1-2.05.73,6,6,0,0,1-1.16-.08ZM13.38,57h.4a1.36,1.36,0,0,0,1.35-1.43,1.16,1.16,0,0,0-1.28-1.32,1.52,1.52,0,0,0-.47.06Zm0,3.92a2,2,0,0,0,.45,0,1.44,1.44,0,0,0,1.52-1.61,1.53,1.53,0,0,0-1.58-1.66h-.39Z"/><path class="cls-1" d="M20.73,58.79c0,2.24-1,3-1.85,3s-1.81-.95-1.81-3,.91-3,1.87-3S20.73,56.77,20.73,58.79Zm-2.78,0c0,1,.16,2.27,1,2.27s.91-1.37.91-2.27-.15-2.25-.93-2.25S18,57.91,18,58.79Z"/><path class="cls-1" d="M21.58,60.74a1.72,1.72,0,0,0,.9.3.77.77,0,0,0,.82-.84c0-.44-.15-.74-.71-1.14a2,2,0,0,1-1.12-1.66A1.53,1.53,0,0,1,23,55.79a1.86,1.86,0,0,1,1,.3l-.24.7a1.28,1.28,0,0,0-.74-.25.7.7,0,0,0-.73.73c0,.4.14.61.69,1A2.13,2.13,0,0,1,24.13,60a1.59,1.59,0,0,1-1.67,1.73,1.85,1.85,0,0,1-1.11-.34Z"/><path class="cls-1" d="M26.14,54.36v1.54h1.07v.71H26.14V60c0,.76.27,1,.59,1a1.61,1.61,0,0,0,.36,0l0,.71a1.86,1.86,0,0,1-.66.1,1.11,1.11,0,0,1-.88-.35A2.2,2.2,0,0,1,25.25,60V56.6h-.68v-.71h.68V54.62Z"/><path class="cls-1" d="M31.32,58.79c0,2.24-1,3-1.85,3s-1.81-.95-1.81-3,.91-3,1.87-3S31.32,56.77,31.32,58.79Zm-2.78,0c0,1,.16,2.27,1,2.27s.91-1.37.91-2.27-.15-2.25-.93-2.25S28.55,57.91,28.55,58.79Z"/><path class="cls-1" d="M32.32,57.39c0-.68,0-1,0-1.5H33l0,.7h0a1.41,1.41,0,0,1,1.28-.79c.77,0,1.35.6,1.35,2v3.9h-.89V58c0-.68-.13-1.38-.77-1.38-.37,0-.73.32-.84.95a3.35,3.35,0,0,0,0,.52V61.7h-.89Z"/><path class="cls-1" d="M38.86,53.73a4.88,4.88,0,0,1,1.28-.16,2.33,2.33,0,0,1,1.75.58,2.23,2.23,0,0,1,.54,1.58,2.12,2.12,0,0,1-1.24,2.08v0c.58.18.88.76,1,1.81a11.71,11.71,0,0,0,.44,2.05h-.9a10.83,10.83,0,0,1-.41-2c-.17-1.1-.51-1.52-1.27-1.52h-.35V61.7h-.89Zm.89,3.73h.37a1.44,1.44,0,0,0,1.42-1.62c0-.94-.37-1.51-1.33-1.52a1.7,1.7,0,0,0-.46,0Z"/><path class="cls-1" d="M44.13,58.88c0,1.78.68,2.16,1.33,2.16a1.81,1.81,0,0,0,.92-.23l.14.68a2.6,2.6,0,0,1-1.22.28c-1.34,0-2-1.14-2-2.92s.76-3.06,1.88-3.06,1.59,1.25,1.59,2.57c0,.22,0,.37,0,.52Zm1.75-.68c0-1.16-.4-1.68-.83-1.68-.58,0-.88.89-.91,1.68Z"/><path class="cls-1" d="M49.89,61.7l-.06-.61h0a1.25,1.25,0,0,1-1.11.71c-.75,0-1.32-.66-1.32-1.66A2.12,2.12,0,0,1,49.74,58v-.18c0-.78-.18-1.32-.89-1.32a1.63,1.63,0,0,0-.92.3l-.2-.65a2.33,2.33,0,0,1,1.3-.38c1.12,0,1.6.77,1.6,2.07v2.51a9.58,9.58,0,0,0,.06,1.32Zm-.13-3A1.32,1.32,0,0,0,48.23,60c0,.76.37,1,.68,1s.73-.3.83-.87a1.63,1.63,0,0,0,0-.32Z"/><path class="cls-1" d="M51.88,53.4h.89v8.3h-.89Z"/><path class="cls-1" d="M58.8,57.86H56.85v3h2.21v.8H56V53.61h3v.8H56.85v2.66H58.8Z"/><path class="cls-1" d="M59.82,60.74a1.72,1.72,0,0,0,.9.3.77.77,0,0,0,.82-.84c0-.44-.15-.74-.71-1.14a2,2,0,0,1-1.12-1.66,1.53,1.53,0,0,1,1.53-1.61,1.86,1.86,0,0,1,1,.3l-.24.7a1.28,1.28,0,0,0-.74-.25.7.7,0,0,0-.73.73c0,.4.14.61.69,1A2.13,2.13,0,0,1,62.38,60a1.59,1.59,0,0,1-1.67,1.73,1.85,1.85,0,0,1-1.11-.34Z"/><path class="cls-1" d="M64.39,54.36v1.54h1.07v.71H64.39V60c0,.76.26,1,.59,1a1.6,1.6,0,0,0,.36,0l0,.71a1.86,1.86,0,0,1-.66.1,1.11,1.11,0,0,1-.87-.35A2.2,2.2,0,0,1,63.5,60V56.6h-.68v-.71h.68V54.62Z"/><path class="cls-1" d="M68.44,61.7l-.06-.61h0a1.25,1.25,0,0,1-1.11.71c-.75,0-1.32-.66-1.32-1.66A2.12,2.12,0,0,1,68.29,58v-.18c0-.78-.18-1.32-.89-1.32a1.63,1.63,0,0,0-.92.3l-.2-.65a2.33,2.33,0,0,1,1.3-.38c1.12,0,1.6.77,1.6,2.07v2.51a9.58,9.58,0,0,0,.06,1.32Zm-.13-3A1.32,1.32,0,0,0,66.78,60c0,.76.37,1,.68,1s.73-.3.83-.87a1.63,1.63,0,0,0,0-.32Z"/><path class="cls-1" d="M71.42,54.36v1.54h1.07v.71H71.42V60c0,.76.26,1,.59,1a1.6,1.6,0,0,0,.36,0l0,.71a1.86,1.86,0,0,1-.66.1,1.11,1.11,0,0,1-.87-.35A2.2,2.2,0,0,1,70.53,60V56.6h-.68v-.71h.68V54.62Z"/><path class="cls-1" d="M73.8,58.88c0,1.78.68,2.16,1.33,2.16a1.81,1.81,0,0,0,.92-.23l.14.68a2.6,2.6,0,0,1-1.22.28c-1.34,0-2-1.14-2-2.92s.76-3.06,1.88-3.06S76.4,57,76.4,58.36c0,.22,0,.37,0,.52Zm1.75-.68c0-1.16-.4-1.68-.83-1.68-.58,0-.88.89-.91,1.68Z"/><path class="cls-3" d="M20.77,65.2v7.93h-1V65.2Z"/><path class="cls-3" d="M22.31,68.9c0-.67,0-1-.05-1.47h.89l.05.68h0a1.67,1.67,0,0,1,1.47-.78c.89,0,1.55.59,1.55,2v3.82h-1V69.45c0-.67-.15-1.35-.89-1.35a1,1,0,0,0-1,.93,2.85,2.85,0,0,0,0,.51v3.59h-1Z"/><path class="cls-3" d="M28.09,67.43l.81,3.2c.09.39.2.89.28,1.39h0c.07-.47.17-1,.27-1.39l.8-3.2h1l-1.67,5.69H28.7L27,67.43Z"/><path class="cls-3" d="M32.72,70.36c0,1.74.78,2.12,1.53,2.12a2.39,2.39,0,0,0,1.06-.22l.16.67a3.43,3.43,0,0,1-1.41.27c-1.54,0-2.34-1.12-2.34-2.86s.88-3,2.16-3,1.83,1.22,1.83,2.52c0,.21,0,.36,0,.51Zm2-.67c0-1.14-.46-1.65-1-1.65-.66,0-1,.87-1,1.65Z"/><path class="cls-3" d="M36.65,72.18a2.21,2.21,0,0,0,1,.29c.58,0,.94-.32.94-.82s-.17-.73-.82-1.12c-.84-.48-1.29-1-1.29-1.62a1.64,1.64,0,0,1,1.77-1.58,2.42,2.42,0,0,1,1.15.29l-.28.68a1.64,1.64,0,0,0-.85-.25.75.75,0,0,0-.84.72c0,.39.16.6.8,1s1.33.94,1.33,1.73a1.7,1.7,0,0,1-1.92,1.69,2.4,2.4,0,0,1-1.27-.33Z"/><path class="cls-3" d="M41.9,65.92v1.51h1.23v.69H41.9V71.5c0,.74.31.94.68.94a2.13,2.13,0,0,0,.41,0l0,.69a2.51,2.51,0,0,1-.76.09,1.39,1.39,0,0,1-1-.34,1.91,1.91,0,0,1-.39-1.44V68.13h-.78v-.69h.78V66.18Z"/><path class="cls-3" d="M44,68.9c0-.67,0-1-.05-1.47h.89l.05.71h0a1.64,1.64,0,0,1,1.45-.8,1.34,1.34,0,0,1,1.34.87h0a1.9,1.9,0,0,1,.64-.65,1.7,1.7,0,0,1,.89-.22c.86,0,1.54.56,1.54,2v3.78h-1V69.56c0-.74-.12-1.46-.9-1.46a1,1,0,0,0-.94.85,3.11,3.11,0,0,0,0,.52v3.66h-1V69.4c0-.63-.13-1.29-.89-1.29a1,1,0,0,0-1,.92,2.9,2.9,0,0,0,0,.49v3.61H44Z"/><path class="cls-3" d="M53,70.36c0,1.74.78,2.12,1.53,2.12a2.39,2.39,0,0,0,1.06-.22l.16.67a3.43,3.43,0,0,1-1.41.27c-1.54,0-2.34-1.12-2.34-2.86s.88-3,2.16-3S56,68.56,56,69.85c0,.21,0,.36,0,.51Zm2-.67c0-1.14-.46-1.65-1-1.65-.66,0-1,.87-1,1.65Z"/><path class="cls-3" d="M57.08,68.9c0-.67,0-1-.05-1.47h.89l.05.68h0a1.67,1.67,0,0,1,1.47-.78c.89,0,1.55.59,1.55,2v3.82H60V69.45c0-.67-.15-1.35-.89-1.35a1,1,0,0,0-1,.93,2.76,2.76,0,0,0,0,.51v3.59h-1Z"/><path class="cls-3" d="M63.62,65.92v1.51h1.23v.69H63.62V71.5c0,.74.31.94.68.94a2.13,2.13,0,0,0,.41,0l0,.69a2.51,2.51,0,0,1-.76.09,1.4,1.4,0,0,1-1-.34,1.92,1.92,0,0,1-.38-1.44V68.13h-.78v-.69h.78V66.18Z"/><path class="cls-3" d="M65.59,72.18a2.21,2.21,0,0,0,1,.29c.58,0,.94-.32.94-.82s-.17-.73-.82-1.12c-.84-.48-1.29-1-1.29-1.62a1.64,1.64,0,0,1,1.77-1.58,2.43,2.43,0,0,1,1.16.29l-.28.68a1.64,1.64,0,0,0-.85-.25.75.75,0,0,0-.84.72c0,.39.16.6.8,1s1.33.94,1.33,1.73a1.7,1.7,0,0,1-1.92,1.69,2.4,2.4,0,0,1-1.27-.33Z"/></svg>